# AST/ASF file generated using VICON BodyLanguage
# -----------------------------------------------
:version 1.10
:name VICON
:units
  mass 1.0
  length 0.45
  angle deg
:documentation
   .ast/.asf automatically generated from VICON data using
   VICON BodyBuilder and BodyLanguage model FoxedUp or BRILLIANT.MOD
:root
   order TX TY TZ RX RY RZ
   axis XYZ
   position 0 0 0  
   orientation 0 0 0 
:bonedata
  begin
     id 1 
     name lhipjoint
     direction 0.700308 -0.549349 0.455834 
     length 2.59063 
     axis 0 0 0  XYZ
  end
  begin
     id 2 
     name lfemur
     direction 0.34202 -0.939693 0  
     length 6.31066  
     axis 0 0 20  XYZ
    dof rx ry rz
    limits (-160.0 20.0)
           (-70.0 70.0)
           (-60.0 70.0)
  end
  begin
     id 3 
     name ltibia
     direction 0.34202 -0.939693 0   
     length 7.36093   
     axis 0 0 20   XYZ
    dof rx
    limits (-10.0 170.0)
  end
  begin
     id 4 
     name lfoot
     direction 0.0905332 -0.248738 0.96433   
     length 2.0233   
     axis -90 7.62852e-016 20   XYZ
    dof rx rz
    limits (-45.0 90.0)
           (-70.0 20.0)
  end
  begin
     id 5 
     name ltoes
     direction 1.53573e-011 -4.21855e-011 1   
     length 1.01524   
     axis -90 7.62852e-016 20   XYZ
    dof rx
    limits (-90.0 20.0)
  end
  begin
     id 6 
     name rhipjoint
     direction -0.61416 -0.607328 0.503944   
     length 2.34332  
     axis 0 0 0  XYZ 
  end
  begin
     id 7 
     name rfemur
     direction -0.34202 -0.939693 0   
     length 6.58548   
     axis 0 0 -20   XYZ
    dof rx ry rz
    limits (-160.0 20.0)
           (-70.0 70.0)
           (-70.0 60.0)
  end
  begin
     id 8 
     name rtibia
     direction -0.34202 -0.939693 0   
     length 7.20707   
     axis 0 0 -20   XYZ
    dof rx
    limits (-10.0 170.0)
 end
 begin
     id 9 
     name rfoot
     direction -0.136772 -0.375778 0.916561   
     length 1.92184  
     axis -90 -7.62852e-016 -20   XYZ
    dof rx rz
    limits (-45.0 90.0)
           (-20.0 70.0)
  end
  begin
     id 10 
     name rtoes
     direction -1.53535e-011 -4.21828e-011 1   
     length 0.951089   
     axis -90 -7.62852e-016 -20   XYZ
    dof rx
    limits (-90.0 20.0)
  end
  begin
     id 11 
     name lowerback
     direction -0.0444974 0.988086 -0.147332   
     length 1.9609   
     axis 0 0 0   XYZ
    dof rx ry rz
    limits (-20.0 45.0)
           (-30.0 30.0)
           (-30.0 30.0)
  end
  begin
     id 12 
     name upperback
     direction 0.00613146 0.999513 0.0306081   
     length 1.94944   
     axis 0 0 0   XYZ
    dof rx ry rz
    limits (-20.0 45.0)
           (-30.0 30.0)
           (-30.0 30.0)
  end
  begin
     id 13 
     name thorax
     direction 0.0254621 0.994518 0.101418   
     length 2.0119   
     axis 0 0 0   XYZ
    dof rx ry rz
    limits (-20.0 45.0)
           (-30.0 30.0)
           (-30.0 30.0)
  end
  begin
     id 14 
     name lowerneck
     direction 0.0168698 0.977854 0.208608   
     length 1.6375   
     axis 0 0 0   XYZ
    dof rx ry rz
    limits (-20.0 45.0)
           (-30.0 30.0)
           (-30.0 30.0)
  end
  begin
     id 15 
     name upperneck
     direction -0.0283988 0.989338 -0.142843   
     length 1.6851   
     axis 0 0 0   XYZ
    dof rx ry rz
    limits (-20.0 45.0)
           (-30.0 30.0)
           (-30.0 30.0)
  end
  begin
     id 16
     name head
     direction -0.0129422 0.99741 -0.0707489  
     length 1.69029  
     axis 0 0 0   XYZ
    dof rx ry rz
    limits (-20.0 45.0)
           (-30.0 30.0)
           (-30.0 30.0)
  end
  begin
     id 17 
     name lclavicle
     direction 0.820295 0.564628 -0.0911715  
     length 3.16484  
     axis 0 0 0   XYZ
    dof ry rz
    limits (-20.0 10.0)
           (0.0 20.0)
  end
  begin
     id 18 
     name lhumerus
     direction 1 -4.48969e-011 1.00186e-027   
     length 5.17853   
     axis 180 -30 -90   XYZ
    dof rx ry rz
    limits (-60.0 90.0)
           (-90.0 90.0)
           (-90.0 90.0)
  end
  begin
     id 19
     name lradius
     direction 1 -4.48966e-011 -1.52922e-027   
     length 3.40399   
     axis 180 -30 -90   XYZ
    dof rx
    limits (-10.0 170.0)
  end
  begin
     id 20
     name lwrist
     direction 1 -4.48981e-011 -3.80893e-027   
     length 1.70199   
     axis 1.1049e-015 90 90   XYZ
    dof ry
    limits (-180.0 0.0)
 end
  begin
     id 21 
     name lhand
     direction 1 -4.48957e-011 -7.61786e-027   
     length 0.708964   
     axis 4.86085e-015 90 90   XYZ
    dof rx rz
    limits (-90.0 90.0)
           (-45.0 45.0)
  end
  begin
     id 22 
     name lfingers
     direction 1 -4.48929e-011 -1.52357e-026   
     length 0.571585   
     axis 9.7217e-015 90 90   XYZ
    dof rx
    limits (0.0 90.0)
  end
  begin
     id 23
     name lthumb
     direction 0.707107 -6.34905e-011 0.707107   
     length 0.820685   
     axis -90 45 2.85299e-015   XYZ
    dof rx rz
    limits (-45.0 45.0)
           (-45.0 45.0)
  end
  begin
     id 24 
     name rclavicle
     direction -0.858602 0.463947 -0.218075   
     length 3.35137  
     axis 0 0 0   XYZ 
    dof ry rz
    limits (-10.0 20.0)
           (-20.0 0.0)
  end
  begin
     id 25 
     name rhumerus
     direction -1 -4.48969e-011 -1.98511e-027  
     length 5.42351   
     axis 180 30 90   XYZ
    dof rx ry rz
    limits (-90.0 60.0)
           (-90.0 90.0)
           (-90.0 90.0)
  end
  begin
     id 26 
     name rradius
     direction -1 -4.48961e-011 -2.82624e-027   
     length 3.42066   
     axis 180 30 90   XYZ
    dof rx
    limits (-10.0 170.0)
  end
  begin
     id 27 
     name rwrist
     direction -1 -4.48966e-011 -3.80893e-027   
     length 1.71033   
     axis 1.1049e-015 -90 -90   XYZ
    dof ry
    limits (-180.0 0.0)
  end
  begin
     id 28
     name rhand
     direction -1 -4.48964e-011 -7.61786e-027   
     length 0.743608   
     axis 4.86085e-015 -90 -90   XYZ
    dof rx rz
    limits (-90.0 90.0)
           (-45.0 45.0)
  end
  begin
     id 29
     name rfingers
     direction -1 -4.48961e-011 -1.52357e-026   
     length 0.599516   
     axis 9.7217e-015 -90 -90   XYZ
    dof rx
    limits (0.0 90.0)
  end
  begin
     id 30
     name rthumb
     direction -0.707107 -6.34913e-011 0.707107   
     length 0.860789   
     axis -90 -45 -2.85299e-015   XYZ
    dof rx rz
    limits (-45.0 45.0)
           (-45.0 45.0)
  end
:hierarchy
  begin
    root lhipjoint rhipjoint lowerback
    lhipjoint lfemur
    lfemur ltibia
    ltibia lfoot
    lfoot ltoes
    rhipjoint rfemur
    rfemur rtibia
    rtibia rfoot
    rfoot rtoes
    lowerback upperback
    upperback thorax
    thorax lowerneck lclavicle rclavicle
    lowerneck upperneck
    upperneck head
    lclavicle lhumerus
    lhumerus lradius
    lradius lwrist
    lwrist lhand lthumb
    lhand lfingers
    rclavicle rhumerus
    rhumerus rradius
    rradius rwrist
    rwrist rhand rthumb
    rhand rfingers
  end

#!OML:ASF E:\mmandel\Project 1\Capture day 1\Session 2\Subject.ASF
:FULLY-SPECIFIED
:DEGREES
440
root 13.2915 8.37269 -0.00185803 31.8039 78.1906 -6.82627
lowerback 27.2605 2.48198 -6.58315
upperback 5.63392 1.39561 -3.69217
thorax -8.82044 0.945148 -0.847792
lowerneck -18.609 3.76835 6.87556
upperneck 6.27471 4.23954 -6.93225
head 5.17869 1.78793 -2.8817
rclavicle -4.92986e-014 2.78299e-015
rhumerus 26.2963 26.1777 -82.4678
rradius 31.5745
rwrist -358.196
rhand -18.4726 26.9419
rfingers 7.12502
rthumb 7.81418 -2.89366
lclavicle -4.92986e-014 2.78299e-015
lhumerus 6.04698 -39.7569 54.9539
lradius 40.8141
lwrist 36.9312
lhand -32.1417 -42.3989
lfingers 7.12502
lthumb -5.38557 -12.4873
rfemur -67.0096 -33.0528 13.4374
rtibia 140.343
rfoot -17.3832 -2.70407
rtoes 0.919652
lfemur -43.2055 46.7285 17.4349
ltibia 126.245
lfoot -17.6273 -22.0549
ltoes -14.4879
441
root 13.2308 8.37153 0.0141596 31.776 78.2494 -6.45987
lowerback 27.5754 2.59245 -6.81727
upperback 5.64947 1.44791 -3.69861
thorax -8.96529 0.979763 -0.752904
lowerneck -17.6074 3.85162 7.79159
upperneck 5.00479 4.28797 -8.1322
head 4.68087 1.78474 -3.41489
rclavicle 9.54166e-015 1.31198e-014
rhumerus 26.7177 26.1408 -82.1486
rradius 31.1321
rwrist -358.681
rhand -18.531 26.9966
rfingers 7.12502
rthumb 7.75788 -2.84106
lclavicle 9.54166e-015 1.31198e-014
lhumerus 7.25483 -39.374 54.5677
lradius 40.1493
lwrist 37.3481
lhand -31.3482 -42.1713
lfingers 7.12502
lthumb -4.61932 -12.2416
rfemur -67.3658 -33.1179 13.5338
rtibia 140.693
rfoot -17.2847 -2.61635
rtoes 3.38241
lfemur -43.0962 46.76 17.802
ltibia 126.444
lfoot -17.4335 -22.163
ltoes -13.3522
442
root 13.1775 8.36691 0.0369956 30.4886 78.1769 -7.3442
lowerback 27.8023 2.86307 -7.10823
upperback 5.6308 1.69197 -3.63429
thorax -9.11634 1.10296 -0.611679
lowerneck -18.4209 3.74284 6.79656
upperneck 6.58864 4.23951 -6.90267
head 5.2458 1.78689 -2.86115
rclavicle -7.95139e-015 1.59028e-014
rhumerus 26.9726 26.0187 -81.9143
rradius 30.5914
rwrist -359.03
rhand -18.7933 27.1958
rfingers 7.12502
rthumb 7.50471 -2.65103
lclavicle -7.95139e-015 1.59028e-014
lhumerus 8.11707 -39.3994 54.2695
lradius 39.6649
lwrist 37.3329
lhand -31.0936 -42.4085
lfingers 7.12502
lthumb -4.37356 -12.4737
rfemur -67.4572 -32.623 13.9601
rtibia 140.917
rfoot -17.8972 -2.52338
rtoes 3.88011
lfemur -42.4096 47.1407 18.8878
ltibia 126.592
lfoot -17.7822 -22.2616
ltoes -14.1765
443
root 13.1197 8.36749 0.0383405 29.1044 78.317 -8.18175
lowerback 28.1214 2.90342 -6.94154
upperback 5.78936 1.78431 -3.61852
thorax -9.09501 1.14451 -0.729266
lowerneck -17.9603 3.79261 6.77844
upperneck 6.25048 4.34695 -7.09374
head 5.07957 1.83666 -2.91206
rclavicle -2.14687e-014 -5.92378e-014
rhumerus 27.4323 25.7861 -81.7596
rradius 29.9732
rwrist -359.019
rhand -19.2214 27.612
rfingers 7.12502
rthumb 7.09143 -2.24919
lclavicle -2.14687e-014 -5.92378e-014
lhumerus 8.98685 -39.2507 53.8492
lradius 39.281
lwrist 37.028
lhand -30.915 -42.3447
lfingers 7.12502
lthumb -4.20107 -12.4063
rfemur -67.3761 -32.5404 14.5139
rtibia 141.075
rfoot -17.7463 -3.58133
rtoes 3.69677
lfemur -42.0207 47.2478 19.6507
ltibia 126.862
lfoot -18.3222 -21.9909
ltoes -15.5698
444
root 13.0641 8.37292 0.032219 29.8051 78.9329 -7.05788
lowerback 28.5669 2.75167 -6.58666
upperback 5.81268 1.66523 -3.57969
thorax -9.27965 1.08734 -0.86375
lowerneck -18.0807 3.73437 6.38272
upperneck 6.85748 4.3351 -6.76316
head 5.27131 1.83396 -2.74301
rclavicle -4.77083e-015 -6.79844e-014
rhumerus 27.7679 25.5349 -81.3776
rradius 29.3302
rwrist -359.173
rhand -19.6818 28.1754
rfingers 7.12502
rthumb 6.64699 -1.70032
lclavicle -4.77083e-015 -6.79844e-014
lhumerus 9.76336 -39.4086 53.5603
lradius 38.9774
lwrist 36.6928
lhand -30.5147 -41.5238
lfingers 7.12502
lthumb -3.81449 -11.5782
rfemur -66.8953 -34.1354 14.1715
rtibia 141.266
rfoot -18.1807 -2.92777
rtoes 3.47217
lfemur -42.8095 46.7762 19.173
ltibia 127.195
lfoot -18.2512 -21.6154
ltoes -14.2324
445
root 13.0022 8.37378 0.0361373 31.5735 79.3483 -5.3083
lowerback 28.3222 2.68674 -6.57021
upperback 5.87101 1.62224 -3.56178
thorax -9.08999 1.06615 -0.82458
lowerneck -18.296 3.65621 6.25736
upperneck 7.20753 4.2623 -6.77437
head 5.40888 1.78651 -2.7322
rclavicle -3.18055e-015 -2.52457e-014
rhumerus 28.3109 25.269 -80.8182
rradius 28.8687
rwrist -359.385
rhand -19.962 28.5853
rfingers 7.12502
rthumb 6.37653 -1.29874
lclavicle -3.18055e-015 -2.52457e-014
lhumerus 10.9011 -39.7342 52.8711
lradius 38.7436
lwrist 36.3577
lhand -30.2323 -40.5644
lfingers 7.12502
lthumb -3.54175 -10.6141
rfemur -66.793 -35.8973 13.4373
rtibia 141.6
rfoot -18.1693 -1.25991
rtoes 9.6836
lfemur -44.1388 46.7627 18.3113
ltibia 127.611
lfoot -17.6509 -21.6173
ltoes -10.427
446
root 12.9351 8.36925 0.0556585 33.8556 79.5732 -3.21676
lowerback 27.7967 2.76862 -7.04092
upperback 5.8739 1.64751 -3.53066
thorax -8.83504 1.08502 -0.508552
lowerneck -18.2578 3.69546 6.65134
upperneck 7.29478 4.29018 -7.28824
head 5.4547 1.77394 -2.95783
rclavicle 3.81667e-014 3.77691e-015
rhumerus 28.5014 24.8148 -80.6117
rradius 28.6604
rwrist -359.216
rhand -20.0975 28.7104
rfingers 7.12502
rthumb 6.24573 -1.17753
lclavicle 3.81667e-014 3.77691e-015
lhumerus 12.0351 -40.0271 52.0676
lradius 38.6337
lwrist 36.1851
lhand -29.9547 -39.828
lfingers 7.12502
lthumb -3.2737 -9.8734
rfemur -67.2911 -37.4833 13.3634
rtibia 141.969
rfoot -18.5585 -0.417639
rtoes 11.4609
lfemur -45.4871 46.9709 17.4606
ltibia 128.015
lfoot -16.9584 -21.7155
ltoes -6.65147
447
root 12.876 8.37851 0.0712951 34.5748 79.9735 -2.26088
lowerback 27.8817 2.74622 -7.2559
upperback 5.98717 1.58894 -3.32449
thorax -8.75436 1.06468 -0.133755
lowerneck -18.1687 3.77332 6.6321
upperneck 7.16258 4.45354 -7.71445
head 5.42274 1.82592 -3.07469
rclavicle 1.23246e-014 -4.19436e-014
rhumerus 28.862 24.736 -80.1792
rradius 28.4251
rwrist -359.045
rhand -20.2069 28.8146
rfingers 7.12502
rthumb 6.14007 -1.07642
lclavicle 1.23246e-014 -4.19436e-014
lhumerus 12.9205 -39.6719 51.7523
lradius 38.4897
lwrist 35.9181
lhand -29.8441 -39.264
lfingers 7.12502
lthumb -3.16688 -9.30776
rfemur -67.5247 -38.5454 14.0633
rtibia 142.057
rfoot -18.9427 -1.43296
rtoes 7.45034
lfemur -46.0616 46.9207 17.3288
ltibia 128.233
lfoot -16.4003 -21.6748
ltoes -3.95306
448
root 12.7938 8.3825 0.0660201 33.9942 80.3329 -2.48986
lowerback 28.2609 2.80482 -7.03108
upperback 6.19194 1.73055 -3.21489
thorax -8.71487 1.12918 -0.19619
lowerneck -19.0626 3.60691 5.86141
upperneck 8.04844 4.30872 -6.92552
head 5.79695 1.76306 -2.70652
rclavicle -3.1408e-014 -4.8901e-014
rhumerus 29.6164 24.3673 -79.4229
rradius 28.0529
rwrist -359.139
rhand -20.332 28.9016
rfingers 7.12502
rthumb 6.01932 -0.992929
lclavicle -3.1408e-014 -4.8901e-014
lhumerus 14.4033 -39.376 51.2207
lradius 38.3765
lwrist 35.8128
lhand -29.5559 -38.4599
lfingers 7.12502
lthumb -2.88856 -8.49975
rfemur -68.1711 -39.3156 14.7846
rtibia 142.349
rfoot -17.9958 -2.80292
rtoes 7.35236
lfemur -46.5129 47.4944 17.7437
ltibia 128.687
lfoot -16.6877 -21.5415
ltoes -5.16247
449
root 12.7394 8.38633 0.069416 35.6124 80.9148 -0.458945
lowerback 28.4693 2.72087 -6.95826
upperback 6.35721 1.66498 -3.10963
thorax -8.62716 1.10129 -0.0988591
lowerneck -19.3017 3.50079 5.28395
upperneck 8.61076 4.22986 -6.25405
head 5.97933 1.7467 -2.40436
rclavicle -1.63003e-014 2.88238e-014
rhumerus 30.2569 24.1646 -78.7036
rradius 27.7476
rwrist -359.435
rhand -20.2953 28.6687
rfingers 7.12502
rthumb 6.05477 -1.22483
lclavicle -1.63003e-014 2.88238e-014
lhumerus 15.4937 -39.0443 51.0107
lradius 38.2446
lwrist 35.9639
lhand -28.6431 -37.2294
lfingers 7.12502
lthumb -2.00701 -7.25906
rfemur -67.5217 -41.9187 14.1277
rtibia 142.535
rfoot -18.3766 -1.84479
rtoes 6.98417
lfemur -47.1966 47.5102 17.4819
ltibia 128.942
lfoot -17.3087 -21.2038
ltoes -7.19617
450
root 12.6756 8.39816 0.0700417 35.7673 81.2163 0.370524
lowerback 29.1738 2.76569 -6.972
upperback 6.52347 1.68904 -3.06993
thorax -8.78384 1.12295 -0.077717
lowerneck -19.9011 3.5408 4.79248
upperneck 9.2872 4.32443 -5.64736
head 6.27103 1.80722 -2.11349
rclavicle -3.53837e-014 -6.32135e-014
rhumerus 30.8559 23.7568 -78.3407
rradius 27.4946
rwrist -359.533
rhand -19.9628 28.2381
rfingers 7.12502
rthumb 6.37576 -1.64597
lclavicle -3.53837e-014 -6.32135e-014
lhumerus 16.7704 -38.8979 50.4344
lradius 38.0232
lwrist 36.3758
lhand -27.9042 -36.2164
lfingers 7.12502
lthumb -1.29337 -6.24056
rfemur -66.7371 -43.3659 13.4686
rtibia 142.676
rfoot -18.5333 -1.29438
rtoes 7.65077
lfemur -47.0596 47.7137 17.8719
ltibia 129.175
lfoot -17.0687 -21.4575
ltoes -5.10889
451
root 12.6133 8.4029 0.064826 37.1775 81.5631 2.22361
lowerback 29.5204 2.78506 -6.74829
upperback 6.58235 1.75137 -3.19513
thorax -8.88009 1.15362 -0.381805
lowerneck -19.9168 3.32171 4.51595
upperneck 9.80817 3.98505 -4.76502
head 6.39598 1.70113 -1.8217
rclavicle -2.18663e-014 6.55989e-014
rhumerus 30.959 22.9772 -78.2366
rradius 27.2939
rwrist -359.539
rhand -19.685 27.934
rfingers 7.12502
rthumb 6.64388 -1.94177
lclavicle -2.18663e-014 6.55989e-014
lhumerus 18.3786 -39.5323 49.3997
lradius 37.8048
lwrist 37.0126
lhand -27.7405 -35.8112
lfingers 7.12502
lthumb -1.13526 -5.83446
rfemur -66.0653 -45.2866 12.5371
rtibia 142.867
rfoot -18.6772 -0.443185
rtoes 7.62621
lfemur -47.2981 48.1641 18.0137
ltibia 129.498
lfoot -16.7505 -21.87
ltoes -2.70883
452
root 12.5406 8.40593 0.0760907 38.104 81.7488 3.4721
lowerback 29.6377 2.92335 -6.98498
upperback 6.71086 1.8723 -3.15636
thorax -8.79955 1.21721 -0.248127
lowerneck -19.5572 3.32884 4.86021
upperneck 9.58083 3.95086 -5.03392
head 6.27637 1.68152 -1.97127
rclavicle -2.5842e-014 -4.73108e-014
rhumerus 31.3862 22.8151 -77.5807
rradius 27.138
rwrist -359.895
rhand -19.9167 27.9025
rfingers 7.12502
rthumb 6.42021 -1.98023
lclavicle -2.5842e-014 -4.73108e-014
lhumerus 19.7242 -39.7301 48.7666
lradius 37.4875
lwrist 37.2606
lhand -27.8986 -35.6979
lfingers 7.12502
lthumb -1.288 -5.72205
rfemur -65.5195 -46.8004 11.8769
rtibia 143.066
rfoot -19.179 0.584985
rtoes 6.8893
lfemur -47.0928 49.1189 18.6797
ltibia 129.766
lfoot -16.8452 -22.4648
ltoes -1.87872
